<?xml version="1.0" encoding="utf-8" standalone="no"?>
<!DOCTYPE svg PUBLIC "-//W3C//DTD SVG 1.1//EN"
  "http://www.w3.org/Graphics/SVG/1.1/DTD/svg11.dtd">
<svg xmlns:xlink="http://www.w3.org/1999/xlink" width="518.4pt" height="244.8pt" viewBox="0 0 518.4 244.8" xmlns="http://www.w3.org/2000/svg" version="1.1">
 <metadata>
  <rdf:RDF xmlns:dc="http://purl.org/dc/elements/1.1/" xmlns:cc="http://creativecommons.org/ns#" xmlns:rdf="http://www.w3.org/1999/02/22-rdf-syntax-ns#">
   <cc:Work>
    <dc:type rdf:resource="http://purl.org/dc/dcmitype/StillImage"/>
    <dc:date>2026-09-21T16:51:41.963720</dc:date>
    <dc:format>image/svg+xml</dc:format>
    <dc:creator>
     <cc:Agent>
      <dc:title>Matplotlib v3.10.9, https://matplotlib.org/</dc:title>
     </cc:Agent>
    </dc:creator>
   </cc:Work>
  </rdf:RDF>
 </metadata>
 <defs>
  <style type="text/css">*{stroke-linejoin: round; stroke-linecap: butt}</style>
 </defs>
 <g id="figure_1">
  <g id="patch_1">
   <path d="M 0 244.8 
L 518.4 244.8 
L 518.4 0 
L 0 0 
z
" style="fill: #ffffff"/>
  </g>
  <g id="axes_1">
   <g id="patch_2">
    <path d="M 26.058218 136.727971 
L 154.158098 136.727971 
Q 166.968086 136.727971 166.968086 130.757983 
L 166.968086 90.162065 
Q 166.968086 84.192077 154.158098 84.192077 
L 26.058218 84.192077 
Q 13.24823 84.192077 13.24823 90.162065 
L 13.24823 130.757983 
Q 13.24823 136.727971 26.058218 136.727971 
z
" clip-path="url(#p0191e8521d)" style="fill: #0072b2; fill-opacity: 0.101961; stroke: #0072b2; stroke-width: 1.3; stroke-linejoin: miter"/>
   </g>
   <g id="patch_3">
    <path d="M 195.15006 136.727971 
L 323.24994 136.727971 
Q 336.059928 136.727971 336.059928 130.757983 
L 336.059928 90.162065 
Q 336.059928 84.192077 323.24994 84.192077 
L 195.15006 84.192077 
Q 182.340072 84.192077 182.340072 90.162065 
L 182.340072 130.757983 
Q 182.340072 136.727971 195.15006 136.727971 
z
" clip-path="url(#p0191e8521d)" style="fill: #009e73; fill-opacity: 0.101961; stroke: #009e73; stroke-width: 1.3; stroke-linejoin: miter"/>
   </g>
   <g id="patch_4">
    <path d="M 364.241902 136.727971 
L 492.341782 136.727971 
Q 505.15177 136.727971 505.15177 130.757983 
L 505.15177 90.162065 
Q 505.15177 84.192077 492.341782 84.192077 
L 364.241902 84.192077 
Q 351.431914 84.192077 351.431914 90.162065 
L 351.431914 130.757983 
Q 351.431914 136.727971 364.241902 136.727971 
z
" clip-path="url(#p0191e8521d)" style="fill: #cc79a7; fill-opacity: 0.101961; stroke: #cc79a7; stroke-width: 1.3; stroke-linejoin: miter"/>
   </g>
   <g id="patch_5">
    <path d="M 163.84315 110.460024 
Q 172.09135 110.460024 178.99791 110.460024 
" clip-path="url(#p0191e8521d)" style="fill: none; stroke: #697780; stroke-width: 1.2; stroke-linecap: round"/>
    <path d="M 173.79791 107.860024 
L 178.99791 110.460024 
L 173.79791 113.060024 
z
" clip-path="url(#p0191e8521d)" style="fill: #697780; stroke: #697780; stroke-width: 1.2; stroke-linecap: round"/>
   </g>
   <g id="patch_6">
    <path d="M 332.934991 110.460024 
Q 341.183192 110.460024 348.089751 110.460024 
" clip-path="url(#p0191e8521d)" style="fill: none; stroke: #697780; stroke-width: 1.2; stroke-linecap: round"/>
    <path d="M 342.889751 107.860024 
L 348.089751 110.460024 
L 342.889751 113.060024 
z
" clip-path="url(#p0191e8521d)" style="fill: #697780; stroke: #697780; stroke-width: 1.2; stroke-linecap: round"/>
   </g>
   <g id="text_1">
    <text style="font-size: 9px; font-family: 'Arial', 'Helvetica', 'DejaVu Sans', sans-serif; fill: #263238" transform="translate(84.10558 108.027071)">Q1</text>
    <text style="font-size: 9px; font-family: 'Arial', 'Helvetica', 'DejaVu Sans', sans-serif; fill: #263238" transform="translate(58.841596 117.546258)">shared features</text>
   </g>
   <g id="text_2">
    <text style="font-size: 9px; font-family: 'Arial', 'Helvetica', 'DejaVu Sans', sans-serif; fill: #263238" transform="translate(253.197422 108.027071)">Q2</text>
    <text style="font-size: 9px; font-family: 'Arial', 'Helvetica', 'DejaVu Sans', sans-serif; fill: #263238" transform="translate(226.941328 117.546258)">source classifier</text>
   </g>
   <g id="text_3">
    <text style="font-size: 9px; font-family: 'Arial', 'Helvetica', 'DejaVu Sans', sans-serif; fill: #263238" transform="translate(422.289263 108.027071)">Q3</text>
    <text style="font-size: 9px; font-family: 'Arial', 'Helvetica', 'DejaVu Sans', sans-serif; fill: #263238" transform="translate(400.030435 117.546258)">transfer labels</text>
   </g>
   <g id="text_4">
    <text style="font-size: 9px; font-family: 'Arial', 'Helvetica', 'DejaVu Sans', sans-serif; text-anchor: middle; fill: #53616a" x="259.2" y="205.979832" transform="rotate(-0 259.2 205.979832)">Q4 decision explanation awaits confirmation of Q3</text>
   </g>
  </g>
 </g>
 <defs>
  <clipPath id="p0191e8521d">
   <rect x="3.00024" y="3.00024" width="512.39952" height="238.79952"/>
  </clipPath>
 </defs>
</svg>
